PathFileType	4	(X/Y/Z)	C:/Users/opensim2020/Desktop/walking_exp_matlab/subject03_walking05_straight_02.trc	
DataRate	CameraRate	NumFrames	NumMarkers	Units	OrigDataRate	OrigDataStartFrame	OrigNumFrames	
100.00	100.00	4	45	mm	100.00	1634	252	
Frame#	Time	LFHD			RFHD			LBHD			RBHD			C7			T10			CLAV			STRN			RBAK			LSHO			LUPA			LELB			LFRM			LWRA			LWRB			LFIN			RSHO			RUPA			RELB			RFRM			RWRA			RWRB			RFIN			LASI			RASI			LPSI			RPSI			LTHI			LKNE			LTIB			LANK			LHEE			LTOE			RTHI			RKNE			RTIB			RANK			RHEE			RTOE			*39			*40			*41			*42			*43			*44			
		X1	Y1	Z1	X2	Y2	Z2	X3	Y3	Z3	X4	Y4	Z4	X5	Y5	Z5	X6	Y6	Z6	X7	Y7	Z7	X8	Y8	Z8	X9	Y9	Z9	X10	Y10	Z10	X11	Y11	Z11	X12	Y12	Z12	X13	Y13	Z13	X14	Y14	Z14	X15	Y15	Z15	X16	Y16	Z16	X17	Y17	Z17	X18	Y18	Z18	X19	Y19	Z19	X20	Y20	Z20	X21	Y21	Z21	X22	Y22	Z22	X23	Y23	Z23	X24	Y24	Z24	X25	Y25	Z25	X26	Y26	Z26	X27	Y27	Z27	X28	Y28	Z28	X29	Y29	Z29	X30	Y30	Z30	X31	Y31	Z31	X32	Y32	Z32	X33	Y33	Z33	X34	Y34	Z34	X35	Y35	Z35	X36	Y36	Z36	X37	Y37	Z37	X38	Y38	Z38	X39	Y39	Z39	X40	Y40	Z40	X41	Y41	Z41	X42	Y42	Z42	X43	Y43	Z43	X44	Y44	Z44	X45	Y45	Z45	

158	1.570	1509.29700	-253.72023	1610.83997	1377.07861	-241.22316	1622.73108	1513.01257	-126.26741	1564.85144	1382.43359	-118.61818	1576.68237	1445.95850	-91.49859	1413.19995	1436.67981	-57.67198	1098.36694	1440.35010	-211.85129	1333.86938	1440.88318	-255.03586	1169.78784	1345.17395	-34.84801	1239.24695	1599.52075	-169.95181	1367.88831	1661.92847	-126.44511	1169.83655	1671.39990	-104.98178	1048.29529	1673.97266	-95.42376	918.16919	1645.98108	-81.09256	797.99670	1694.88538	-56.67359	811.57281	1684.12769	-39.80437	727.28015	1282.55176	-164.44240	1361.62805	1205.78760	-195.72665	1144.77869	1192.89099	-237.23969	1040.02173	1196.59839	-295.25818	916.45117	1238.26001	-352.72549	838.87982	1194.16040	-326.67609	821.21252	1206.43396	-373.80896	765.73303	1549.09912	-231.18086	941.28381	1311.75439	-220.68008	931.04718	1507.64465	-66.23652	958.68658	1357.59241	-63.28062	963.74567	1590.61658	-225.93576	643.02716	1546.17261	-272.39957	471.82108	1551.03711	-265.01480	277.19455	1514.27063	-296.17462	69.87815	1476.03125	-259.32593	35.20552	1490.36548	-450.11588	39.74873	1269.09729	-130.36642	640.17694	1293.56921	-114.03636	460.13260	1294.02026	25.32764	319.87799	1343.05383	160.63222	151.50755	1397.99487	208.30167	150.89830	1361.25696	70.24326	34.71137																		 
159	1.580	1510.54407	-263.71597	1612.09778	1378.41370	-251.17421	1624.26111	1514.09314	-136.18344	1566.66028	1383.80322	-128.39220	1578.78528	1447.49902	-101.22912	1414.65137	1438.00378	-67.86420	1100.10779	1441.21802	-221.76158	1335.68005	1441.83618	-265.28256	1171.75598	1346.35840	-44.97864	1240.49780	1600.44690	-180.75574	1369.86987	1663.04834	-139.32909	1171.61987	1672.27319	-118.71790	1049.90723	1674.52881	-110.38993	919.66962	1646.17981	-96.45728	799.45862	1695.57678	-72.76511	812.65228	1684.08362	-55.04517	728.29401	1283.80212	-173.46295	1363.63782	1207.56226	-203.71251	1146.45215	1194.98730	-244.34247	1041.36938	1198.53040	-301.32797	917.35315	1240.08191	-357.87878	839.03613	1196.02905	-331.94885	821.70203	1208.18359	-378.10043	765.46033	1550.86975	-241.10353	943.35736	1313.72119	-231.66325	932.88312	1508.28320	-76.60509	961.19812	1358.41772	-74.18815	965.32428	1592.13037	-232.87793	644.16022	1547.79456	-276.39996	472.39163	1551.62415	-266.46472	277.47089	1514.58691	-295.89893	70.16807	1476.10583	-259.24106	35.20848	1490.52295	-450.21210	39.58451	1269.42944	-145.29572	640.18512	1292.62939	-132.86946	459.79681	1293.07349	9.46363	322.91980	1341.65295	149.11208	158.27876	1397.40503	195.84270	161.02446	1361.42822	68.61804	35.05586																		 
160	1.590	1511.78857	-273.66028	1613.14160	1379.65808	-261.02771	1625.53870	1515.40662	-145.92348	1568.35266	1385.07275	-138.15781	1580.67908	1448.87012	-110.91444	1415.85046	1439.32471	-78.28992	1101.20703	1442.05908	-231.70596	1337.32776	1442.78809	-275.61411	1173.60559	1347.63538	-54.96178	1241.60205	1601.24622	-191.48726	1371.78235	1664.19458	-152.13284	1173.38293	1673.34607	-132.67287	1051.47375	1675.09631	-125.67764	921.07983	1646.33765	-112.55708	800.81689	1696.29285	-89.55518	813.60681	1684.21716	-71.32676	729.15845	1285.05090	-182.37033	1365.53711	1209.29883	-211.69943	1148.00134	1196.94727	-251.17867	1042.57434	1200.27307	-307.12747	918.10046	1241.98340	-362.91040	839.05969	1197.74194	-336.97086	822.14789	1210.20984	-382.66528	765.22351	1552.72107	-250.74097	945.11365	1315.67908	-242.34244	934.61603	1509.06384	-86.86132	963.37463	1359.28979	-84.84114	966.86432	1593.72961	-238.77965	644.74133	1549.46399	-279.73288	472.50311	1552.21484	-268.12079	277.77158	1514.26062	-296.16580	70.00893	1476.08911	-259.39618	35.08524	1490.78027	-450.35431	39.31788	1269.88989	-160.66429	640.04211	1292.00916	-152.20155	459.32022	1292.33789	-7.70263	325.64972	1339.96399	135.78705	164.51054	1396.01929	181.84567	171.01662	1362.24963	66.53918	35.55503																		 
161	1.600	1512.91235	-283.44571	1613.95020	1380.82422	-270.71100	1626.56531	1516.88477	-155.50163	1569.81958	1386.39282	-147.66840	1582.34717	1450.27515	-120.46561	1416.89746	1440.86316	-88.35176	1102.31909	1442.89880	-241.51712	1338.74829	1443.68042	-285.80450	1175.10144	1348.84094	-64.84225	1242.37891	1601.97766	-202.09633	1373.51575	1665.37964	-164.88774	1174.99939	1674.35266	-146.48575	1052.85254	1675.82666	-141.27139	922.39355	1647.24536	-129.75664	802.34839	1697.20483	-106.77583	814.46185	1684.37463	-88.31413	729.70776	1286.31763	-190.92819	1367.35376	1210.81885	-219.36882	1149.36084	1198.66626	-257.75708	1043.61206	1201.86890	-312.75903	918.70032	1243.22864	-368.85870	839.46442	1199.37817	-342.02356	822.41095	1212.18384	-387.03278	764.63574	1554.48389	-260.22089	946.38428	1317.54321	-252.76540	936.12231	1509.94763	-97.03696	965.20618	1360.27197	-95.10597	968.18585	1594.94861	-243.99722	645.02106	1550.91199	-282.97900	472.30551	1552.52710	-269.67407	277.90375	1514.16626	-296.35422	70.08636	1476.06152	-259.50317	35.00441	1490.79248	-450.56622	38.97383	1270.29028	-175.99065	639.69409	1291.99207	-171.91667	458.74066	1291.74719	-25.91573	327.87451	1338.07434	120.98093	170.02921	1393.57458	166.92238	180.92676	1363.01184	64.02610	36.52603																		 
